<svg xmlns="http://www.w3.org/2000/svg" width="235.813" height="328.95" viewBox="0 0 235.813 328.95"><metadata><?xpacket begin="﻿" id="W5M0MpCehiHzreSzNTczkc9d"?>
<x:xmpmeta xmlns:x="adobe:ns:meta/" x:xmptk="Adobe XMP Core 5.6-c148 79.163858, 2019/03/06-03:18:36        ">
   <rdf:RDF xmlns:rdf="http://www.w3.org/1999/02/22-rdf-syntax-ns#">
      <rdf:Description rdf:about=""
            xmlns:xmp="http://ns.adobe.com/xap/1.0/"
            xmlns:xmpMM="http://ns.adobe.com/xap/1.0/mm/"
            xmlns:stEvt="http://ns.adobe.com/xap/1.0/sType/ResourceEvent#">
         <xmp:Rating>2</xmp:Rating>
         <xmp:MetadataDate>2019-10-11T09:42:42+01:00</xmp:MetadataDate>
         <xmpMM:InstanceID>xmp.iid:f55f44f6-f0ec-e74e-a8ad-8834057f8999</xmpMM:InstanceID>
         <xmpMM:DocumentID>xmp.did:f55f44f6-f0ec-e74e-a8ad-8834057f8999</xmpMM:DocumentID>
         <xmpMM:OriginalDocumentID>xmp.did:f55f44f6-f0ec-e74e-a8ad-8834057f8999</xmpMM:OriginalDocumentID>
         <xmpMM:History>
            <rdf:Seq>
               <rdf:li>
                  <rdf:Description>
                     <stEvt:action>saved</stEvt:action>
                     <stEvt:instanceID>xmp.iid:f55f44f6-f0ec-e74e-a8ad-8834057f8999</stEvt:instanceID>
                     <stEvt:when>2019-10-11T09:42:42+01:00</stEvt:when>
                     <stEvt:softwareAgent>Adobe Bridge 2019 (Windows)</stEvt:softwareAgent>
                     <stEvt:changed>/metadata</stEvt:changed>
                  </rdf:Description>
               </rdf:li>
            </rdf:Seq>
         </xmpMM:History>
      </rdf:Description>
   </rdf:RDF>
</x:xmpmeta>
                                                                                                    
                                                                                                    
                                                                                                    
                                                                                                    
                                                                                                    
                                                                                                    
                                                                                                    
                                                                                                    
                                                                                                    
                                                                                                    
                                                                                                    
                                                                                                    
                                                                                                    
                                                                                                    
                                                                                                    
                                                                                                    
                                                                                                    
                                                                                                    
                                                                                                    
                                                                                                    
                           
<?xpacket end="w"?></metadata>
<g transform="translate(-1658 -735.05)"><path d="M69.448,15.212c0,3.619-3.378,7.2-7,7.2L25.889,23.953c-1.994,0-1.311-.075-2.56-1.536-.681-.8,25.6-6.548,40.084-9.2C68.331,12.31,69.448,14.912,69.448,15.212Z" transform="translate(1657.764 732.708) rotate(25)" fill="#3c1313"/><g transform="translate(1658 735.05)"><g transform="translate(120.228)"><g transform="translate(2.585 6.95)"><path d="M0,0,8.262,38.51C3.655,43.919.536,50.548,1.057,57.974c1.5,21.4,31.292,16.692,37.086,5.891s5.107-38.2-2.382-40.129c-2.987-.77-9.349,1.116-15.825,5.019L24,0Z" transform="translate(42 73) rotate(180)" fill="#b28b67"/></g><path d="M38.167,46.308c3.012-13.4,11.594-22.536,10.283-28.526a10.2,10.2,0,0,0-6.986-7.45S38.528-1.543,22.529.23-3.235,8.648.982,23.268c3.876,0,8.556-1.4,15.027,1,3.08,1.143,4.406,7.09,4.406,7.09h2.924s4.257-7.057,8.4-5.187,1.881,9.087,1.881,9.087l1.44,11.049Z" transform="translate(0 -0.05)" fill="#191847"/></g><g transform="translate(0 162.95)"><g transform="translate(120.813 42)"><path d="M87.377,0H10.123L0,124H115Z" fill="#c5cfd6"/><path d="M37.981,0H14.221L0,124H65.6Z" transform="translate(49.396)" fill="rgba(0,0,0,0.1)"/></g><path d="M57.131,5.354c-1,12.65-2.861,56.444-1,76.715.785,8.557,1.633,16.7,2.465,23.927C40.738,73.88,11.516,26.9,11.516,26.9L0,32.16S13.566,76.854,22.247,95.265c9.91,21.017,19.2,39.015,23.112,45.355,6.151,9.971,16.86,6.492,22.518.456,8.237,4.946,22.056-1.409,22.046-8.482C89.895,111.429,70.58,11.68,69.572,5.375,69.038,2.038,65.76,0,62.7,0,59.977,0,57.427,1.611,57.131,5.354Z" transform="translate(110.736 161.832) rotate(180)" fill="#b28b67"/><path d="M0,0,5.118,101.51c3.688,17.553,34.907,9.406,34.894,0C39.982,80.155,27.154,6.383,27.145.021Z" transform="translate(109.913 113.125) rotate(160)" fill="#626685"/><g transform="translate(120.86 135.571) rotate(150)"><path d="M4.474,15.967a2,2,0,0,1-2.565-1.348L0,7.894A64.242,64.242,0,0,1,.9,0H57.3s2.2,7.268-2.538,7.848S46.9,8.894,46.9,8.894L20.68,20.581a1,1,0,0,1-1.332-.532l-1.685-4.088s-4.385-2.046-7.127-2.046Z" transform="translate(0 0)" fill="#f053cc"/></g><g transform="translate(0 145.332)"><path d="M53.339,5.033A2,2,0,0,1,55.9,6.381l1.908,6.724a64.242,64.242,0,0,1-.9,7.894H.51s-2.2-7.268,2.538-7.848,7.87-1.047,7.87-1.047L37.133.419a1,1,0,0,1,1.332.532l1.685,4.088s4.385,2.046,7.127,2.046Z" transform="translate(0 -0.332)" fill="#f053cc"/></g><path d="M0,36.433C0,63,12.617,124.97,12.625,130.82l27.146.021S33.81,47.9,35.544,47s71.051,6.921,91.84,6.921c29.979,0,42.38-18.9,43.386-53.925H111.384C99.292,1.294,36.222,14.015,12.8,18.388,2.77,20.261,0,29.115,0,36.433Z" transform="translate(18.042)" fill="#626685"/></g><g transform="translate(31.567 36.726)"><path d="M50.6,124.47l-32.784-9.725L23,96.673l34.172,19.961a85.879,85.879,0,0,1,22.476,6.4c1.494,1.1,3.407,3.443-2.294,3.6s-11.691.583-12.268,2.595,3.087,3.958,1.783,6.727a.789.789,0,0,1-.785.45Q63.133,136.407,50.6,124.47ZM0,20.6,31.587,7.5Q44.989-8.244,46.574-5.627C48.16-3.01,44.719-.69,45.5,1.249s6.785,1.735,12.471,1.3S62,4.64,60.634,5.89A85.86,85.86,0,0,1,38.949,14.6L7.052,38.027Z" transform="translate(71.19 127.419) rotate(180)" fill="#b28b67"/><path d="M13.491,78.364C38.653,51.574,69.342,34.092,111.2,18.586L101.9,0C58.717,4.072,35.63,7.324,17.531,34.155,12.988,40.889,4.866,64.06,0,76.093Z" transform="matrix(-0.966, 0.259, -0.259, -0.966, 146.998, 99.513)" fill="#fff"/><path d="M77,114H0S26.163,34.208,26.73,4.472c.019-1.011,1.886-2.792,2.712-2.558C38.5,4.472,48.828,0,48.828,0,67.082,29.358,73.4,65.5,77,114Z" transform="translate(85.246 21.224)" fill="#d678c3"/><path d="M1.421,0c-6.52,43.823,10.617,104.583,26.5,135.23a5.417,5.417,0,0,0,4.941,3.377H44.8l.016-.047c4.019-.033,8.494-.193,13.375-.353,21.921-.722,52.027-1.443,85.805,9.4l4.078-20.373c-31.214-20.075-62.819-35.626-90.514-33.418C69.582,42.231,69.028,0,42.478,0Z" transform="matrix(-0.996, -0.087, 0.087, -0.996, 159.602, 163.002)" fill="#fff"/></g></g></g></svg>